<!-- Generated by IcoMoon.io -->
<svg version="1.1" xmlns="http://www.w3.org/2000/svg" width="32" height="32" viewBox="0 0 32 32">
<title>electrical-car</title>
<path fill="#444" d="M24.905 27.091h-22.91c-0.301 0-0.545 0.244-0.545 0.545s0.244 0.545 0.545 0.545h22.91c0.301 0 0.545-0.244 0.545-0.545s-0.244-0.545-0.545-0.545z"></path>
<path fill="#444" d="M28.538 27.091h-0.728c-0.301 0-0.545 0.244-0.545 0.545s0.244 0.545 0.545 0.545h0.728c0.301 0 0.545-0.244 0.545-0.545s-0.244-0.545-0.545-0.545z"></path>
<path fill="#444" d="M31.455 18.001c0.301 0 0.545-0.244 0.545-0.545s-0.244-0.545-0.545-0.545h-2.001v-0.728h-2.546c-0.289 0-0.567 0.115-0.771 0.32s-0.32 0.482-0.32 0.771v2.546c0 0.289 0.115 0.567 0.32 0.771s0.482 0.32 0.771 0.32h2.546v-0.727h2.001c0.301 0 0.545-0.244 0.545-0.545s-0.244-0.545-0.545-0.545h-2.001v-1.091z"></path>
<path fill="#444" d="M23.273 18.727v3.455c0 0.301-0.244 0.545-0.545 0.545s-0.545-0.244-0.545-0.545v-4.182h-2.182c0-0.482-0.191-0.945-0.533-1.286s-0.803-0.533-1.286-0.533h-0.182l-2.069-4.728c-0.142-0.324-0.374-0.6-0.67-0.794s-0.642-0.297-0.995-0.297h-8.531c-0.354 0-0.699 0.104-0.995 0.297s-0.529 0.47-0.67 0.794l-2.069 4.728h-0.182c-0.482 0-0.945 0.191-1.286 0.533s-0.533 0.803-0.533 1.286v2.182c0 0.482 0.191 0.945 0.533 1.285s0.803 0.533 1.286 0.533h16.364c0.482 0 0.945-0.191 1.286-0.533s0.533-0.803 0.533-1.285v-1.091h1.091v3.091c0 0.585 0.311 1.125 0.818 1.417s1.13 0.292 1.637 0c0.506-0.292 0.818-0.832 0.818-1.417v-3.091h0.728l-0-1.091h-1.091c-0.402 0-0.727 0.326-0.727 0.727zM5.522 12.909c0.291-0.662 0.578-1.091 1.302-1.091h6.349c0.728 0 1.011 0.429 1.302 1.091l1.433 3.273h-11.819zM4.362 19.818h-1.818c-0.402 0-0.728-0.326-0.728-0.727s0.326-0.728 0.728-0.728h1.818zM7.999 19.455h0c0 0.201-0.163 0.364-0.364 0.364s-0.364-0.162-0.364-0.364v-0.728c0-0.201 0.163-0.364 0.364-0.364s0.364 0.163 0.364 0.364zM9.453 19.455h0c0 0.201-0.163 0.364-0.364 0.364s-0.364-0.162-0.364-0.364v-0.728c0-0.201 0.163-0.364 0.364-0.364s0.364 0.163 0.364 0.364zM10.907 19.455h0c0 0.201-0.162 0.364-0.364 0.364s-0.364-0.162-0.364-0.364v-0.728c0-0.201 0.162-0.364 0.364-0.364s0.364 0.163 0.364 0.364zM12.362 19.455h0c0 0.201-0.163 0.364-0.364 0.364s-0.364-0.162-0.364-0.364v-0.728c0-0.201 0.163-0.364 0.364-0.364s0.364 0.163 0.364 0.364zM17.453 19.818h-1.818v-1.454h1.818c0.193 0 0.378 0.077 0.514 0.213s0.213 0.321 0.213 0.514-0.077 0.378-0.213 0.514c-0.137 0.137-0.321 0.213-0.514 0.213z"></path>
<path fill="#444" d="M3.999 26.001c0.193 0 0.378-0.077 0.514-0.213s0.213-0.321 0.213-0.514v-2.546h-3.273v2.546c0 0.193 0.077 0.378 0.213 0.514s0.321 0.213 0.514 0.213z"></path>
<path fill="#444" d="M17.817 26.001c0.193 0 0.378-0.077 0.514-0.213s0.213-0.321 0.213-0.514v-2.546h-3.273v2.546c0 0.193 0.077 0.378 0.213 0.514s0.321 0.213 0.514 0.213z"></path>
<path fill="#444" d="M26.181 11.818c1.061 0 2.078-0.422 2.829-1.172s1.172-1.768 1.172-2.829c0-1.061-0.422-2.078-1.172-2.828s-1.768-1.172-2.829-1.172c-1.061 0-2.078 0.421-2.828 1.172s-1.172 1.768-1.172 2.828c0 1.061 0.422 2.078 1.172 2.829s1.768 1.172 2.828 1.172zM27.054 5.272l-0.436 2.364h1.054l-2.364 3.091 0.436-2.364h-1.054z"></path>
</svg>
