<!-- Generated by IcoMoon.io -->
<svg version="1.1" xmlns="http://www.w3.org/2000/svg" width="26" height="32" viewBox="0 0 26 32">
<title>hybrid-car</title>
<path fill="#444" d="M21.343 25.93h-19.581c-0.266 0-0.481 0.216-0.481 0.481s0.216 0.481 0.481 0.481h19.581c0.266 0 0.481-0.216 0.481-0.481s-0.216-0.481-0.481-0.481z"></path>
<path fill="#444" d="M24.549 25.93h-0.642c-0.266 0-0.481 0.216-0.481 0.481s0.216 0.481 0.481 0.481h0.642c0.266 0 0.481-0.216 0.481-0.481s-0.216-0.481-0.481-0.481z"></path>
<path fill="#444" d="M22.469 5.367c-0.936 0-1.834 0.372-2.497 1.034s-1.034 1.56-1.034 2.497c0 0.937 0.372 1.835 1.034 2.497s1.56 1.034 2.497 1.034c0.937 0 1.835-0.372 2.497-1.034s1.034-1.56 1.034-2.497c0-0.936-0.372-1.834-1.034-2.497s-1.56-1.034-2.497-1.034zM21.699 11.466l0.385-2.086h-0.931l2.087-2.728-0.385 2.087h0.931z"></path>
<path fill="#444" d="M7.062 8.898c0-0.936-0.372-1.834-1.034-2.497s-1.56-1.034-2.497-1.034c-0.937 0-1.835 0.372-2.497 1.034s-1.034 1.56-1.034 2.497c0 0.937 0.372 1.835 1.034 2.497s1.56 1.034 2.497 1.034c0.936 0 1.834-0.372 2.497-1.034s1.034-1.56 1.034-2.497zM2.247 9.719c0-0.709 1.284-3.21 1.284-3.21s1.284 2.5 1.284 3.21h0c0 0.459-0.245 0.883-0.642 1.112s-0.887 0.229-1.284 0c-0.397-0.229-0.642-0.653-0.642-1.112z"></path>
<path fill="#444" d="M4.333 10.201c0 0.177-0.144 0.321-0.321 0.321s-0.321-0.144-0.321-0.321 0.144-0.321 0.321-0.321c0.177 0 0.321 0.144 0.321 0.321z"></path>
<path fill="#444" d="M20.222 16.3h-0.161l-1.826-4.173c-0.125-0.286-0.33-0.529-0.592-0.7s-0.566-0.262-0.879-0.262h-7.53c-0.312 0-0.617 0.091-0.879 0.262s-0.467 0.414-0.592 0.7l-1.826 4.173h-0.161c-0.426 0-0.834 0.169-1.135 0.47s-0.47 0.709-0.47 1.135v1.926c0 0.426 0.169 0.834 0.47 1.135s0.709 0.47 1.135 0.47h14.444c0.426 0 0.834-0.169 1.135-0.47s0.47-0.709 0.47-1.135v-1.926c0-0.426-0.169-0.834-0.47-1.135s-0.709-0.47-1.135-0.47zM9.049 13.411c0.257-0.584 0.51-0.963 1.149-0.963h5.604c0.642 0 0.892 0.379 1.149 0.963l1.265 2.889h-10.432zM8.025 19.51h-1.605c-0.355 0-0.642-0.287-0.642-0.642s0.287-0.642 0.642-0.642h1.605zM11.234 19.189h0c0 0.177-0.144 0.321-0.321 0.321s-0.321-0.144-0.321-0.321v-0.642c0-0.177 0.144-0.321 0.321-0.321s0.321 0.144 0.321 0.321zM12.518 19.189h0c0 0.177-0.144 0.321-0.321 0.321s-0.321-0.144-0.321-0.321v-0.642c0-0.177 0.144-0.321 0.321-0.321s0.321 0.144 0.321 0.321zM13.802 19.189h0c0 0.177-0.144 0.321-0.321 0.321s-0.321-0.144-0.321-0.321v-0.642c0-0.177 0.144-0.321 0.321-0.321s0.321 0.144 0.321 0.321zM15.086 19.189h0c0 0.177-0.144 0.321-0.321 0.321s-0.321-0.144-0.321-0.321v-0.642c0-0.177 0.144-0.321 0.321-0.321s0.321 0.144 0.321 0.321zM19.58 19.51h-1.605v-1.284h1.605c0.17 0 0.334 0.067 0.454 0.188s0.188 0.284 0.188 0.454-0.068 0.334-0.188 0.454-0.284 0.188-0.454 0.188z"></path>
<path fill="#444" d="M7.704 24.967c0.17 0 0.334-0.068 0.454-0.188s0.188-0.284 0.188-0.454v-2.247h-2.889v2.247c0 0.17 0.067 0.334 0.188 0.454s0.284 0.188 0.454 0.188z"></path>
<path fill="#444" d="M19.901 24.967c0.17 0 0.333-0.068 0.454-0.188s0.188-0.284 0.188-0.454v-2.247h-2.889v2.247c0 0.17 0.068 0.334 0.188 0.454s0.284 0.188 0.454 0.188z"></path>
<path fill="#444" d="M8.005 7.103l2.029 0.437c0.108 0.023 0.221-0.011 0.298-0.091s0.108-0.193 0.081-0.301l-0.071-0.283c1.845-0.34 3.741-0.298 5.569 0.125l-0.154 0.456c-0.038 0.115-0.007 0.242 0.079 0.328s0.214 0.115 0.329 0.076l1.964-0.658c0.106-0.035 0.186-0.123 0.212-0.231s-0.007-0.223-0.087-0.301l-1.313-1.306c-0.079-0.079-0.194-0.112-0.302-0.085s-0.196 0.107-0.23 0.214l-0.186 0.578c-2.012-0.48-4.103-0.527-6.134-0.138l-0.138-0.571c-0.027-0.108-0.109-0.195-0.216-0.229s-0.223-0.009-0.308 0.065l-1.563 1.361c-0.091 0.079-0.13 0.204-0.1 0.321s0.123 0.208 0.241 0.234z"></path>
</svg>
