<!-- Generated by IcoMoon.io -->
<svg version="1.1" xmlns="http://www.w3.org/2000/svg" width="32" height="32" viewBox="0 0 32 32">
<title>thermal-car</title>
<path fill="#444" d="M24.655 27.483h-22.966c-0.312 0-0.565 0.253-0.565 0.565s0.253 0.565 0.565 0.565h22.966c0.312 0 0.565-0.253 0.565-0.565s-0.253-0.565-0.565-0.565z"></path>
<path fill="#444" d="M28.416 27.483h-0.753c-0.312 0-0.565 0.253-0.565 0.565s0.253 0.565 0.565 0.565h0.753c0.312 0 0.565-0.253 0.565-0.565s-0.253-0.565-0.565-0.565z"></path>
<path fill="#444" d="M25.977 11.671c1.098 0 2.152-0.436 2.928-1.213s1.213-1.83 1.213-2.928c0-1.098-0.436-2.152-1.213-2.928s-1.83-1.213-2.928-1.213c-1.098 0-2.152 0.436-2.928 1.213s-1.213 1.83-1.213 2.928c0 1.098 0.436 2.152 1.213 2.928s1.83 1.213 2.928 1.213zM25.977 4.728s1.506 2.933 1.506 3.765h0c0 0.538-0.287 1.035-0.753 1.304s-1.040 0.269-1.506 0c-0.466-0.269-0.753-0.766-0.753-1.304 0-0.832 1.506-3.765 1.506-3.765z"></path>
<path fill="#444" d="M26.918 9.058c0 0.208-0.169 0.377-0.377 0.377s-0.376-0.169-0.376-0.377c0-0.208 0.169-0.376 0.376-0.376s0.377 0.169 0.377 0.376z"></path>
<path fill="#444" d="M18.824 22.212c0.499 0 0.978-0.198 1.331-0.551s0.551-0.832 0.551-1.331v-2.259c0-0.499-0.198-0.978-0.551-1.331s-0.832-0.551-1.331-0.551h-0.188l-2.142-4.894c-0.147-0.335-0.387-0.621-0.694-0.822s-0.664-0.307-1.030-0.307h-8.832c-0.366 0-0.724 0.107-1.030 0.307s-0.547 0.486-0.694 0.822l-2.142 4.894h-0.188c-0.499 0-0.978 0.198-1.331 0.551s-0.551 0.832-0.551 1.331v2.259c0 0.499 0.198 0.978 0.551 1.331s0.832 0.551 1.331 0.551zM8.282 19.576c0 0.208-0.169 0.376-0.377 0.376s-0.376-0.168-0.376-0.376v-0.753c0-0.208 0.169-0.376 0.376-0.376s0.377 0.169 0.377 0.376zM9.788 19.576c0 0.208-0.169 0.376-0.376 0.376s-0.377-0.168-0.377-0.376v-0.753c0-0.208 0.169-0.376 0.377-0.376s0.376 0.169 0.376 0.376zM11.294 19.576c0 0.208-0.168 0.376-0.376 0.376s-0.376-0.168-0.376-0.376v-0.753c0-0.208 0.168-0.376 0.376-0.376s0.376 0.169 0.376 0.376zM12.8 19.576h0c0 0.208-0.169 0.376-0.377 0.376s-0.376-0.168-0.376-0.376v-0.753c0-0.208 0.169-0.376 0.376-0.376s0.377 0.169 0.377 0.376zM18.071 18.447c0.2 0 0.391 0.079 0.532 0.22s0.22 0.333 0.22 0.532-0.079 0.391-0.22 0.532c-0.141 0.141-0.333 0.22-0.532 0.22h-1.882v-1.506zM5.718 12.8c0.301-0.685 0.599-1.129 1.348-1.129h6.573c0.753 0 1.046 0.444 1.348 1.129l1.483 3.388h-12.236zM2.635 18.447h1.882v1.506h-1.882c-0.416 0-0.753-0.337-0.753-0.753s0.337-0.753 0.753-0.753z"></path>
<path fill="#444" d="M1.506 25.6c0 0.2 0.079 0.391 0.22 0.532s0.333 0.22 0.532 0.22h1.882c0.2 0 0.391-0.079 0.532-0.22s0.22-0.333 0.22-0.532v-2.635h-3.388z"></path>
<path fill="#444" d="M15.811 25.6c0 0.2 0.079 0.391 0.22 0.532s0.333 0.22 0.532 0.22h1.882c0.2 0 0.391-0.079 0.532-0.22s0.22-0.333 0.22-0.532v-2.635h-3.388z"></path>
<path fill="#444" d="M30.494 22.212c-0.416 0-0.753 0.337-0.753 0.753v2.071c0 0.312-0.253 0.565-0.565 0.565s-0.565-0.253-0.565-0.565v-3.415l-1.129 1.129v2.21c0.001 0.432 0.159 0.849 0.443 1.174s0.676 0.537 1.104 0.596c0.475 0.043 0.946-0.115 1.296-0.439s0.549-0.779 0.544-1.256v-1.694h1.129v-1.129z"></path>
<path fill="#444" d="M26.922 22.382l0.015-0.011z"></path>
<path fill="#444" d="M27.761 19.999l-2.873-2.873c-0.102-0.125-0.257-0.194-0.418-0.184h-2.635c-0.208 0-0.377 0.168-0.377 0.376v0.376c0.022 0.218 0.207 0.382 0.425 0.377h1.833l1.171 1.182-0.376 1.333c-0.033 0.133-0.024 0.272 0.027 0.399 0.028 0.072 0.074 0.135 0.132 0.185l1.197 1.201c0.141 0.141 0.333 0.22 0.533 0.22s0.392-0.079 0.533-0.22l1.596-1.6zM26.481 21.73l-0.719-0.719 0.109-0.425 0.877 0.873z"></path>
</svg>
