<svg id="Layer_1" xmlns="http://www.w3.org/2000/svg" xmlns:xlink="http://www.w3.org/1999/xlink"
    x="0px" y="0px" viewBox="0 0 734.2 201.3" xml:space="preserve"><style type="text/css">
	.st0{fill:#FF6600;}
</style><g><path class="st0" d="M236.4,117.5c-28.9,0-55.6-9.9-71.3-26.5c-2.2-2.3-6.1-2.3-8.3,0c-15.7,16.6-42.7,26.5-72.1,26.5 c-40.3,0-73.6-17.8-82.9-44.3c-0.8-2.2-0.4-4.6,0.9-6.6c1.5-2.1,4-3.4,6.7-3.4c5,0,9.7,3.5,11.9,8.8c8.2,20,33.9,33.4,64,33.4 c29.9,0,55.4-13.2,63.4-32.9c2.3-5.6,7.1-9.2,12.2-9.2c5.2,0,10,3.6,12.4,9.3c8.5,19.7,34.1,32.9,63.8,32.9 c20.1,0,38.4-6.1,54.5-18.1l0.6-0.4l13,7.6l-1.3,1C284,110.7,263.2,117.5,236.4,117.5z"></path><path d="M161,54.8c-5.2,0-10-3.6-12.4-9.3c-8.4-19.7-34.1-32.9-63.8-32.9C54.5,12.6,28.9,26,21.1,46c-2.1,5.3-6.6,8.7-11.7,8.7 c-2.6,0-5.1-1.3-6.6-3.4c-1.4-2-1.7-4.4-0.9-6.6C11.5,18.7,45.8,0.5,85.4,0.5c29.4,0,56.3,9.9,71.8,26.5c2.2,2.3,6.1,2.3,8.3,0 c15.8-16.6,42.3-26.5,70.9-26.5c18.8,0,35.1,3.5,49.9,10.6c1.6,0.8,2.6,2.2,3,3.9c0.4,1.9-0.2,3.8-1.5,5.3c-1.8,1.9-4.2,3-6.8,3 l0,0c-1.4,0-2.7-0.3-3.9-1c-12.9-6.7-25.9-9.9-41-9.9c-29.4,0-54.6,13.2-62.7,32.9C171,51.1,166.1,54.8,161,54.8z"></path><path d="M438,51.8c-4.2-30.7-34.8-51.3-76.1-51.3c-44.4,0-79.1,25.6-79.1,58.3v0.4c0,33.2,35.1,58.3,81.7,58.3 c22.4,0,40.4-4.2,56.8-13.3c3.2-1.8,4.5-5.9,2.9-9.6c-0.9-2.2-3.1-3.7-5.4-3.7c-1,0-2,0.3-2.9,0.8c-14.7,9.2-31.3,13.7-50.8,13.7 c-32.4,0-58.2-15.9-62.9-38.6c-0.1-0.6,0-1.2,0.4-1.6c0.4-0.5,1.1-0.8,1.8-0.8h121.2c3.8,0,7.5-1.6,9.8-4.3 C437.5,57.7,438.4,54.8,438,51.8z M418.3,51.9c-0.4,0.5-1.1,0.8-1.8,0.8h-112c-0.7,0-1.3-0.3-1.7-0.8c-0.4-0.5-0.6-1.2-0.4-1.8 c5-22.3,29.2-37.8,58.9-37.8c37.1,0,54,19.7,57.4,38.1C418.9,51.1,418.6,51.6,418.3,51.9z"></path><path d="M506.7,0.5c-18.1,0-34.6,2.5-53.6,8c-1.5,0.4-2.7,1.5-3.3,3c-0.6,1.5-0.4,3.3,0.5,4.7c1.9,3,5.8,4.5,9.2,3.4 c15.7-4.9,30.4-7.1,46.3-7.1c34.2,0,53.1,11.5,53.1,32.5V46c0,1.3-1.2,2.3-2.4,2.1c-12.1-2-27.6-4.1-51-4.1c-45,0-73,14.1-73,36.8 v0.4c0,23.3,32.5,35.5,64.6,35.5c33.3,0,52.5-11.6,61.8-19.5v9c0,4.9,4,8.8,8.8,8.8c4.9,0,8.8-4,8.8-8.8V44.6 C576.5,16.6,551.1,0.5,506.7,0.5z M559.2,71.9c0,18.3-26.9,32.7-61.2,32.7c-23.2,0-46.7-8.3-46.7-24.1v-0.4 c0-15.1,20.4-24.5,53.1-24.5c22.6,0,40.3,2.4,51.6,4.3c1.8,0.3,3.1,1.7,3.1,3.4V71.9z"></path><path d="M723.7,114.9c-5,0-9-4-9-9V48.7c0-22.4-19.6-36.3-51.2-36.3c-31.9,0-56,16.4-56,38.1v55.5c0,5-4,9-9,9c-5,0-9-4-9-9V12.1 c0-5,4-9,9-9c5,0,9,4,9,9v8.7c0,0.2,0.2,0.3,0.4,0.3c0.1,0,0.3,0,0.5-0.2c13.2-13.5,32.5-20.4,57.4-20.4 c40.6,0,66.9,18.2,66.9,46.2v59.2C732.7,110.9,728.7,114.9,723.7,114.9z"></path></g><g><path d="M16.3,200.7c-9.5,0-13-6.1-13-13.7c0-8.8,4.5-15.2,14-15.2c2.1,0,4.4,0.3,6.3,0.9l-0.7,4.2c-1.9-0.7-3.9-1.1-6-1.1 c-5.9,0-8.6,4.5-8.6,10.4c0,6.6,2.8,10.4,9,10.4c1.9,0,4.2-0.5,5.8-1.3l0.8,4C21.7,200.1,19,200.7,16.3,200.7z"></path><path d="M43.1,200.7c-8.6,0-12.8-5.6-12.8-14.3c0-9.4,6.1-14.9,13.6-14.9c7.6,0,12.8,4.7,12.8,14.2 C56.7,195.2,50.7,200.7,43.1,200.7z M43.6,175.6c-4.4,0-8.3,3.5-8.3,10.3c0,6.4,2.6,10.8,8.2,10.8c4.2,0,8.4-3.4,8.4-10.4 C51.9,179.4,48.9,175.6,43.6,175.6z"></path><path d="M82.9,200.3l-9.7-16.1c-1.3-2.1-2.3-4.1-3.2-6c0.2,2.8,0.3,8.5,0.3,12.6v9.5h-4.5V172h6l9.4,15.5c1.3,2.1,2.4,4.4,3.4,6.4 c-0.2-3.2-0.3-9.3-0.3-13.5V172h4.5v28.4H82.9z"></path><path d="M117.4,200.3l-9.7-16.1c-1.3-2.1-2.3-4.1-3.2-6c0.2,2.8,0.3,8.5,0.3,12.6v9.5h-4.5V172h6l9.4,15.5c1.3,2.1,2.4,4.4,3.4,6.4 c-0.2-3.2-0.3-9.3-0.3-13.5V172h4.5v28.4H117.4z"></path><path d="M134.9,200.3V172h15v3.8h-10.4v8.1h9.9v3.7h-9.9v8.8h10.4v3.9H134.9z"></path><path d="M171.6,200.7c-9.5,0-13-6.1-13-13.7c0-8.8,4.5-15.2,14-15.2c2.1,0,4.4,0.3,6.3,0.9l-0.7,4.2c-1.9-0.7-3.9-1.1-6-1.1 c-5.9,0-8.6,4.5-8.6,10.4c0,6.6,2.8,10.4,9,10.4c1.9,0,4.2-0.5,5.8-1.3l0.8,4C177,200.1,174.3,200.7,171.6,200.7z"></path><path d="M198.1,175.8v24.5h-4.6v-24.5h-7.8V172h20.2v3.9H198.1z"></path><path d="M213.7,200.3V172h15v3.8h-10.4v8.1h9.9v3.7h-9.9v8.8h10.4v3.9H213.7z"></path><path d="M252.4,200.3l-8.5-12.3h-0.5v12.3h-4.6V172c2.1-0.1,4.4-0.2,7.6-0.2c5.9,0,9.9,2.1,9.9,7.7c0,4.5-3.5,7.4-7.7,7.9 c0.8,1,1.7,2.1,2.4,3l7.2,9.9H252.4z M245.7,175.5c-0.9,0-1.7,0-2.4,0.1v9c0.4,0,1.2,0.1,2.2,0.1c3.7,0,5.9-1.9,5.9-4.7 C251.5,176.9,249.6,175.5,245.7,175.5z"></path><path d="M296.1,190c-0.6,0-1.4,0-2.1-0.1v10.5h-4.6V172c2.2-0.1,4.6-0.2,7.3-0.2c6.7,0,10.4,3.3,10.4,8.5 C307.1,185.8,302.7,190,296.1,190z M296.3,175.5c-0.9,0-1.6,0-2.4,0.1V186c0.6,0.1,1.3,0.2,2,0.2c3.8,0,6.3-2.1,6.3-5.5 C302.4,177.5,300.5,175.5,296.3,175.5z"></path><path d="M326.6,200.7c-8.6,0-12.8-5.6-12.8-14.3c0-9.4,6.1-14.9,13.6-14.9c7.6,0,12.8,4.7,12.8,14.2 C340.2,195.2,334.1,200.7,326.6,200.7z M327,175.6c-4.4,0-8.3,3.5-8.3,10.3c0,6.4,2.6,10.8,8.2,10.8c4.2,0,8.4-3.4,8.4-10.4 C335.3,179.4,332.3,175.6,327,175.6z"></path><path d="M360.1,200.7c-8.9,0-10.8-4.9-10.8-10.1V172h4.6v18.4c0,3.8,1.3,6.6,6.5,6.6c4.6,0,6.7-1.9,6.7-7.2V172h4.5v17.4 C371.6,197,367.5,200.7,360.1,200.7z"></path><path d="M396.6,200.3l-8.5-12.3h-0.5v12.3h-4.6V172c2.1-0.1,4.4-0.2,7.6-0.2c5.9,0,9.9,2.1,9.9,7.7c0,4.5-3.5,7.4-7.7,7.9 c0.8,1,1.7,2.1,2.4,3l7.2,9.9H396.6z M389.9,175.5c-0.9,0-1.7,0-2.4,0.1v9c0.4,0,1.2,0.1,2.2,0.1c3.7,0,5.9-1.9,5.9-4.7 C395.7,176.9,393.7,175.5,389.9,175.5z"></path><path d="M461,200.3l-2.2-15.1c-0.4-2.9-0.7-5.1-0.9-6.9h-0.1c-0.3,1.6-0.8,3.4-1.5,5.5l-5.3,16.5h-4.7l-5.1-15.3 c-0.8-2.4-1.4-4.5-1.8-6.7h-0.1c-0.2,2.4-0.5,4.7-0.8,7.4l-1.8,14.7H432l4.2-28.4h5.5l5.5,16.4c0.5,1.6,1.1,3.7,1.6,5.8h0 c0.5-2.1,0.9-3.7,1.6-5.6L456,172h5.5l4.3,28.4H461z"></path><path d="M475,200.3V172h4.6v28.4H475z"></path><path d="M491.2,200.3V172h15v3.8h-10.4v8.1h9.9v3.7h-9.9v8.8h10.4v3.9H491.2z"></path><path d="M527.1,200.7c-8.9,0-10.8-4.9-10.8-10.1V172h4.6v18.4c0,3.8,1.3,6.6,6.5,6.6c4.6,0,6.7-1.9,6.7-7.2V172h4.5v17.4 C538.6,197,534.5,200.7,527.1,200.7z"></path><path d="M564.9,200.3l-6.7-11.1l-6.7,11.1h-5.4l9.2-14.6l-8.7-13.8h5.3l6.3,10.4l6.2-10.4h5.2l-8.5,13.7l9.5,14.7H564.9z"></path><path d="M614.3,200.7c-8.8,0-14.2-5.3-14.2-14c0-8.8,5.9-15.2,15.5-15.2c2.9,0,5.6,0.5,7.9,1.2l-1,4.2c-2.2-0.9-4.7-1.4-7.3-1.4 c-5.7,0-10.2,3.7-10.2,10.7c0,6.6,3.7,10.4,9.8,10.4c1.6,0,3.1-0.3,4.4-0.7v-10.3h4.6V199C621,200.1,617.5,200.7,614.3,200.7z"></path><path d="M634.4,200.3V172h15v3.8H639v8.1h9.9v3.7H639v8.8h10.4v3.9H634.4z M639.9,170l-0.8-2.5l8.1-3.1l1.1,3.3L639.9,170z"></path><path d="M673.2,200.3l-8.5-12.3h-0.5v12.3h-4.6V172c2.1-0.1,4.4-0.2,7.6-0.2c5.9,0,9.9,2.1,9.9,7.7c0,4.5-3.5,7.4-7.7,7.9 c0.8,1,1.7,2.1,2.4,3l7.2,9.9H673.2z M666.5,175.5c-0.9,0-1.7,0-2.4,0.1v9c0.4,0,1.2,0.1,2.2,0.1c3.7,0,5.9-1.9,5.9-4.7 C672.3,176.9,670.3,175.5,666.5,175.5z"></path><path d="M687.6,200.3V172h15v3.8h-10.4v8.1h9.9v3.7h-9.9v8.8h10.4v3.9H687.6z"></path><path d="M726.3,200.3l-8.5-12.3h-0.5v12.3h-4.6V172c2.1-0.1,4.4-0.2,7.6-0.2c5.9,0,9.9,2.1,9.9,7.7c0,4.5-3.5,7.4-7.7,7.9 c0.8,1,1.7,2.1,2.4,3l7.2,9.9H726.3z M719.7,175.5c-0.9,0-1.7,0-2.4,0.1v9c0.4,0,1.2,0.1,2.2,0.1c3.7,0,5.9-1.9,5.9-4.7 C725.4,176.9,723.5,175.5,719.7,175.5z"></path></g></svg>